<mxfile host="app.diagrams.net" agent="Mozilla/5.0 (Windows NT 10.0; Win64; x64) AppleWebKit/537.36 (KHTML, like Gecko) Chrome/134.0.0.0 Safari/537.36" version="26.2.14">
  <diagram name="Page-1" id="XpHC-xpwUQr4wrkCxNWA">
    <mxGraphModel dx="786" dy="451" grid="1" gridSize="10" guides="1" tooltips="1" connect="1" arrows="1" fold="1" page="1" pageScale="1" pageWidth="850" pageHeight="1100" math="0" shadow="0">
      <root>
        <mxCell id="0" />
        <mxCell id="1" parent="0" />
        <mxCell id="XWweEaz6pKlOYZeZjHE6-17" value="" style="rounded=0;whiteSpace=wrap;html=1;" vertex="1" parent="1">
          <mxGeometry x="550" y="60" width="170" height="80" as="geometry" />
        </mxCell>
        <mxCell id="XWweEaz6pKlOYZeZjHE6-27" value="" style="rounded=0;whiteSpace=wrap;html=1;" vertex="1" parent="1">
          <mxGeometry x="520" y="478" width="290" height="170" as="geometry" />
        </mxCell>
        <mxCell id="XWweEaz6pKlOYZeZjHE6-3" value="" style="rounded=0;whiteSpace=wrap;html=1;" vertex="1" parent="1">
          <mxGeometry x="210" y="40" width="270" height="640" as="geometry" />
        </mxCell>
        <mxCell id="XWweEaz6pKlOYZeZjHE6-9" style="edgeStyle=orthogonalEdgeStyle;rounded=0;orthogonalLoop=1;jettySize=auto;html=1;" edge="1" parent="1" source="XWweEaz6pKlOYZeZjHE6-1" target="XWweEaz6pKlOYZeZjHE6-6">
          <mxGeometry relative="1" as="geometry" />
        </mxCell>
        <mxCell id="XWweEaz6pKlOYZeZjHE6-1" value="Questionare UI" style="rounded=1;whiteSpace=wrap;html=1;" vertex="1" parent="1">
          <mxGeometry x="30" y="70" width="120" height="60" as="geometry" />
        </mxCell>
        <mxCell id="XWweEaz6pKlOYZeZjHE6-18" value="" style="edgeStyle=orthogonalEdgeStyle;rounded=0;orthogonalLoop=1;jettySize=auto;html=1;" edge="1" parent="1" source="XWweEaz6pKlOYZeZjHE6-2" target="XWweEaz6pKlOYZeZjHE6-15">
          <mxGeometry relative="1" as="geometry" />
        </mxCell>
        <mxCell id="XWweEaz6pKlOYZeZjHE6-2" value="Update Sor Codes" style="rounded=1;whiteSpace=wrap;html=1;" vertex="1" parent="1">
          <mxGeometry x="240" y="240" width="120" height="60" as="geometry" />
        </mxCell>
        <mxCell id="XWweEaz6pKlOYZeZjHE6-5" value="RM Agent (Python and Langgrpah)" style="text;html=1;align=center;verticalAlign=middle;resizable=0;points=[];autosize=1;strokeColor=none;fillColor=none;" vertex="1" parent="1">
          <mxGeometry x="225" y="10" width="210" height="30" as="geometry" />
        </mxCell>
        <mxCell id="XWweEaz6pKlOYZeZjHE6-8" value="" style="edgeStyle=orthogonalEdgeStyle;rounded=0;orthogonalLoop=1;jettySize=auto;html=1;" edge="1" parent="1" source="XWweEaz6pKlOYZeZjHE6-6" target="XWweEaz6pKlOYZeZjHE6-7">
          <mxGeometry relative="1" as="geometry" />
        </mxCell>
        <mxCell id="XWweEaz6pKlOYZeZjHE6-23" style="edgeStyle=orthogonalEdgeStyle;rounded=0;orthogonalLoop=1;jettySize=auto;html=1;entryX=0;entryY=0.5;entryDx=0;entryDy=0;" edge="1" parent="1" source="XWweEaz6pKlOYZeZjHE6-6" target="XWweEaz6pKlOYZeZjHE6-47">
          <mxGeometry relative="1" as="geometry" />
        </mxCell>
        <mxCell id="XWweEaz6pKlOYZeZjHE6-6" value="Create Base Branch" style="rounded=1;whiteSpace=wrap;html=1;" vertex="1" parent="1">
          <mxGeometry x="240" y="70" width="120" height="60" as="geometry" />
        </mxCell>
        <mxCell id="XWweEaz6pKlOYZeZjHE6-11" style="edgeStyle=orthogonalEdgeStyle;rounded=0;orthogonalLoop=1;jettySize=auto;html=1;exitX=0.5;exitY=1;exitDx=0;exitDy=0;entryX=0.5;entryY=0;entryDx=0;entryDy=0;" edge="1" parent="1" source="XWweEaz6pKlOYZeZjHE6-7" target="XWweEaz6pKlOYZeZjHE6-2">
          <mxGeometry relative="1" as="geometry" />
        </mxCell>
        <mxCell id="XWweEaz6pKlOYZeZjHE6-24" style="edgeStyle=orthogonalEdgeStyle;rounded=0;orthogonalLoop=1;jettySize=auto;html=1;" edge="1" parent="1" source="XWweEaz6pKlOYZeZjHE6-7">
          <mxGeometry relative="1" as="geometry">
            <mxPoint x="530" y="100" as="targetPoint" />
          </mxGeometry>
        </mxCell>
        <mxCell id="XWweEaz6pKlOYZeZjHE6-7" value="Create new On Boarding Branch" style="rounded=1;whiteSpace=wrap;html=1;" vertex="1" parent="1">
          <mxGeometry x="240" y="155" width="120" height="60" as="geometry" />
        </mxCell>
        <mxCell id="XWweEaz6pKlOYZeZjHE6-10" style="edgeStyle=orthogonalEdgeStyle;rounded=0;orthogonalLoop=1;jettySize=auto;html=1;exitX=0.5;exitY=1;exitDx=0;exitDy=0;" edge="1" parent="1" source="XWweEaz6pKlOYZeZjHE6-3" target="XWweEaz6pKlOYZeZjHE6-3">
          <mxGeometry relative="1" as="geometry" />
        </mxCell>
        <mxCell id="XWweEaz6pKlOYZeZjHE6-12" value="LLM" style="rounded=0;whiteSpace=wrap;html=1;direction=south;" vertex="1" parent="1">
          <mxGeometry x="570" y="280" width="110" height="90" as="geometry" />
        </mxCell>
        <mxCell id="XWweEaz6pKlOYZeZjHE6-14" value="" style="endArrow=classic;startArrow=classic;html=1;rounded=0;exitX=1;exitY=0.5;exitDx=0;exitDy=0;entryX=0.5;entryY=1;entryDx=0;entryDy=0;" edge="1" parent="1" source="XWweEaz6pKlOYZeZjHE6-2" target="XWweEaz6pKlOYZeZjHE6-12">
          <mxGeometry width="50" height="50" relative="1" as="geometry">
            <mxPoint x="500" y="340" as="sourcePoint" />
            <mxPoint x="550" y="290" as="targetPoint" />
            <Array as="points">
              <mxPoint x="420" y="270" />
            </Array>
          </mxGeometry>
        </mxCell>
        <mxCell id="XWweEaz6pKlOYZeZjHE6-20" value="" style="edgeStyle=orthogonalEdgeStyle;rounded=0;orthogonalLoop=1;jettySize=auto;html=1;" edge="1" parent="1" source="XWweEaz6pKlOYZeZjHE6-15" target="XWweEaz6pKlOYZeZjHE6-19">
          <mxGeometry relative="1" as="geometry" />
        </mxCell>
        <mxCell id="XWweEaz6pKlOYZeZjHE6-15" value="Update Rules" style="rounded=1;whiteSpace=wrap;html=1;" vertex="1" parent="1">
          <mxGeometry x="240" y="330" width="120" height="60" as="geometry" />
        </mxCell>
        <mxCell id="XWweEaz6pKlOYZeZjHE6-16" value="" style="endArrow=classic;startArrow=classic;html=1;rounded=0;entryX=0.5;entryY=1;entryDx=0;entryDy=0;exitX=1;exitY=0.5;exitDx=0;exitDy=0;" edge="1" parent="1" source="XWweEaz6pKlOYZeZjHE6-15" target="XWweEaz6pKlOYZeZjHE6-12">
          <mxGeometry width="50" height="50" relative="1" as="geometry">
            <mxPoint x="370" y="280" as="sourcePoint" />
            <mxPoint x="500" y="280" as="targetPoint" />
            <Array as="points">
              <mxPoint x="360" y="360" />
              <mxPoint x="440" y="360" />
            </Array>
          </mxGeometry>
        </mxCell>
        <mxCell id="XWweEaz6pKlOYZeZjHE6-22" value="" style="edgeStyle=orthogonalEdgeStyle;rounded=0;orthogonalLoop=1;jettySize=auto;html=1;" edge="1" parent="1" source="XWweEaz6pKlOYZeZjHE6-19" target="XWweEaz6pKlOYZeZjHE6-21">
          <mxGeometry relative="1" as="geometry" />
        </mxCell>
        <mxCell id="XWweEaz6pKlOYZeZjHE6-26" value="" style="edgeStyle=orthogonalEdgeStyle;rounded=0;orthogonalLoop=1;jettySize=auto;html=1;" edge="1" parent="1" source="XWweEaz6pKlOYZeZjHE6-19">
          <mxGeometry relative="1" as="geometry">
            <mxPoint x="530" y="110" as="targetPoint" />
          </mxGeometry>
        </mxCell>
        <mxCell id="XWweEaz6pKlOYZeZjHE6-19" value="Create PR" style="whiteSpace=wrap;html=1;rounded=1;" vertex="1" parent="1">
          <mxGeometry x="240" y="430" width="120" height="60" as="geometry" />
        </mxCell>
        <mxCell id="XWweEaz6pKlOYZeZjHE6-31" style="edgeStyle=orthogonalEdgeStyle;rounded=0;orthogonalLoop=1;jettySize=auto;html=1;entryX=0;entryY=0.5;entryDx=0;entryDy=0;" edge="1" parent="1" source="XWweEaz6pKlOYZeZjHE6-21" target="XWweEaz6pKlOYZeZjHE6-30">
          <mxGeometry relative="1" as="geometry" />
        </mxCell>
        <mxCell id="XWweEaz6pKlOYZeZjHE6-43" value="" style="edgeStyle=orthogonalEdgeStyle;rounded=0;orthogonalLoop=1;jettySize=auto;html=1;" edge="1" parent="1" source="XWweEaz6pKlOYZeZjHE6-21" target="XWweEaz6pKlOYZeZjHE6-42">
          <mxGeometry relative="1" as="geometry" />
        </mxCell>
        <mxCell id="XWweEaz6pKlOYZeZjHE6-21" value="Refresh Service Context with new Config" style="whiteSpace=wrap;html=1;rounded=1;" vertex="1" parent="1">
          <mxGeometry x="240" y="520" width="120" height="60" as="geometry" />
        </mxCell>
        <mxCell id="XWweEaz6pKlOYZeZjHE6-28" value="Config Server" style="rounded=1;whiteSpace=wrap;html=1;" vertex="1" parent="1">
          <mxGeometry x="700" y="490" width="100" height="40" as="geometry" />
        </mxCell>
        <mxCell id="XWweEaz6pKlOYZeZjHE6-29" value="Spring Admin" style="rounded=1;whiteSpace=wrap;html=1;" vertex="1" parent="1">
          <mxGeometry x="700" y="590" width="100" height="40" as="geometry" />
        </mxCell>
        <mxCell id="XWweEaz6pKlOYZeZjHE6-30" value="Spring Client App" style="rounded=1;whiteSpace=wrap;html=1;" vertex="1" parent="1">
          <mxGeometry x="550" y="530" width="100" height="40" as="geometry" />
        </mxCell>
        <mxCell id="XWweEaz6pKlOYZeZjHE6-34" value="" style="endArrow=classic;startArrow=classic;html=1;rounded=0;exitX=1;exitY=0.5;exitDx=0;exitDy=0;entryX=0;entryY=0.5;entryDx=0;entryDy=0;" edge="1" parent="1" source="XWweEaz6pKlOYZeZjHE6-30" target="XWweEaz6pKlOYZeZjHE6-28">
          <mxGeometry width="50" height="50" relative="1" as="geometry">
            <mxPoint x="620" y="510" as="sourcePoint" />
            <mxPoint x="670" y="460" as="targetPoint" />
            <Array as="points">
              <mxPoint x="680" y="550" />
            </Array>
          </mxGeometry>
        </mxCell>
        <mxCell id="XWweEaz6pKlOYZeZjHE6-36" value="" style="endArrow=classic;startArrow=classic;html=1;rounded=0;exitX=1;exitY=0.5;exitDx=0;exitDy=0;entryX=0;entryY=0.5;entryDx=0;entryDy=0;" edge="1" parent="1" source="XWweEaz6pKlOYZeZjHE6-30" target="XWweEaz6pKlOYZeZjHE6-29">
          <mxGeometry width="50" height="50" relative="1" as="geometry">
            <mxPoint x="660" y="620" as="sourcePoint" />
            <mxPoint x="710" y="570" as="targetPoint" />
            <Array as="points">
              <mxPoint x="680" y="550" />
            </Array>
          </mxGeometry>
        </mxCell>
        <mxCell id="XWweEaz6pKlOYZeZjHE6-38" value="" style="endArrow=classic;startArrow=classic;html=1;rounded=0;entryX=0.5;entryY=1;entryDx=0;entryDy=0;exitX=0.5;exitY=0;exitDx=0;exitDy=0;" edge="1" parent="1" source="XWweEaz6pKlOYZeZjHE6-29" target="XWweEaz6pKlOYZeZjHE6-28">
          <mxGeometry width="50" height="50" relative="1" as="geometry">
            <mxPoint x="620" y="570" as="sourcePoint" />
            <mxPoint x="670" y="520" as="targetPoint" />
          </mxGeometry>
        </mxCell>
        <mxCell id="XWweEaz6pKlOYZeZjHE6-40" style="edgeStyle=orthogonalEdgeStyle;rounded=0;orthogonalLoop=1;jettySize=auto;html=1;exitX=1;exitY=0.5;exitDx=0;exitDy=0;" edge="1" parent="1" source="XWweEaz6pKlOYZeZjHE6-12" target="XWweEaz6pKlOYZeZjHE6-12">
          <mxGeometry relative="1" as="geometry" />
        </mxCell>
        <mxCell id="XWweEaz6pKlOYZeZjHE6-44" style="edgeStyle=orthogonalEdgeStyle;rounded=0;orthogonalLoop=1;jettySize=auto;html=1;exitX=1;exitY=0.5;exitDx=0;exitDy=0;entryX=0;entryY=0.75;entryDx=0;entryDy=0;" edge="1" parent="1" source="XWweEaz6pKlOYZeZjHE6-42" target="XWweEaz6pKlOYZeZjHE6-30">
          <mxGeometry relative="1" as="geometry" />
        </mxCell>
        <mxCell id="XWweEaz6pKlOYZeZjHE6-42" value="Trigger BDD" style="whiteSpace=wrap;html=1;rounded=1;" vertex="1" parent="1">
          <mxGeometry x="240" y="610" width="120" height="60" as="geometry" />
        </mxCell>
        <mxCell id="XWweEaz6pKlOYZeZjHE6-46" value="Git Hub" style="text;html=1;align=center;verticalAlign=middle;resizable=0;points=[];autosize=1;strokeColor=none;fillColor=none;" vertex="1" parent="1">
          <mxGeometry x="580" y="38" width="60" height="30" as="geometry" />
        </mxCell>
        <mxCell id="XWweEaz6pKlOYZeZjHE6-47" value="App Config Repo" style="rounded=1;whiteSpace=wrap;html=1;" vertex="1" parent="1">
          <mxGeometry x="570" y="80" width="120" height="40" as="geometry" />
        </mxCell>
        <mxCell id="XWweEaz6pKlOYZeZjHE6-49" style="edgeStyle=orthogonalEdgeStyle;rounded=0;orthogonalLoop=1;jettySize=auto;html=1;exitX=0.75;exitY=0;exitDx=0;exitDy=0;entryX=1;entryY=0.5;entryDx=0;entryDy=0;" edge="1" parent="1" source="XWweEaz6pKlOYZeZjHE6-28" target="XWweEaz6pKlOYZeZjHE6-47">
          <mxGeometry relative="1" as="geometry">
            <mxPoint x="710" y="100" as="targetPoint" />
            <Array as="points">
              <mxPoint x="775" y="100" />
            </Array>
          </mxGeometry>
        </mxCell>
        <mxCell id="XWweEaz6pKlOYZeZjHE6-50" value="AI Model" style="text;html=1;align=center;verticalAlign=middle;resizable=0;points=[];autosize=1;strokeColor=none;fillColor=none;" vertex="1" parent="1">
          <mxGeometry x="585" y="258" width="70" height="30" as="geometry" />
        </mxCell>
        <mxCell id="XWweEaz6pKlOYZeZjHE6-51" value="Application Environment" style="text;html=1;align=center;verticalAlign=middle;resizable=0;points=[];autosize=1;strokeColor=none;fillColor=none;" vertex="1" parent="1">
          <mxGeometry x="605" y="448" width="150" height="30" as="geometry" />
        </mxCell>
      </root>
    </mxGraphModel>
  </diagram>
</mxfile>
